<?xml version="1.0" encoding="utf-8"?>
<!-- Generator: Adobe Illustrator 27.0.1, SVG Export Plug-In . SVG Version: 6.00 Build 0)  -->
<svg version="1.1" id="Layer_1" xmlns="http://www.w3.org/2000/svg" xmlns:xlink="http://www.w3.org/1999/xlink" x="0px" y="0px"
	 viewBox="0 0 624.5 198" style="enable-background:new 0 0 624.5 198;" xml:space="preserve">
<style type="text/css">
	.st0{fill:none;stroke:#885FFF;stroke-width:6;stroke-miterlimit:10;}
</style>
<path class="st0" d="M100.4,66.1c0-17.6-14.1-31.7-31.4-31.7H53.4v63.2H69C86.3,97.6,100.4,83.4,100.4,66.1 M171.3,192.1h-57.2
	l-45.4-63H53.4v62.9H3V3h72.2c41.6,0,75.6,28.3,75.6,63.1c0,21.2-13,40.2-32.9,51.8L171.3,192.1"/>
<path class="st0" d="M228.1,77.5c-13.3,0-24.6,18.1-24.6,40.5s11.3,40.5,24.6,40.5c13.6,0,24.9-18.1,24.9-40.5
	C253.1,95.6,241.8,77.5,228.1,77.5 M305.7,118c0,42.8-34.8,77.1-77.6,77.1c-42.8,0-77.3-34.3-77.3-77.1c0-42.8,34.5-77,77.3-77
	C270.9,40.9,305.7,75.2,305.7,118 M424,44.1L366,102.1V43.9h-50.4v148H366v-60.1l60.6,60.1H490l-77-77l63.8-63.8v87.9
	c0,29.2,17.5,56.1,61.7,56.1c21,0,40.2-11.9,49.6-22.7l22.7,19.5h10.8V44.1h-50.4v95.7c-5.7,9.9-13.6,16.1-25.8,16.1
	c-12.4,0-18.1-7.4-18.1-30.9v-81H424L424,44.1z"/>
</svg>
